<?xml version="1.0" encoding="utf-8"?>
<!-- Generator: Adobe Illustrator 22.0.1, SVG Export Plug-In . SVG Version: 6.00 Build 0)  -->
<svg version="1.1" id="레이어_1" xmlns="http://www.w3.org/2000/svg" xmlns:xlink="http://www.w3.org/1999/xlink" x="0px"
	 y="0px" viewBox="0 0 512 512" style="enable-background:new 0 0 512 512;" xml:space="preserve">
<path d="M256,50.8c-113.6,0-206,92.4-206,206s92.4,206,206,206s206-92.4,206-206S369.6,50.8,256,50.8z M278.8,325.9
	c-29.5,0-40.4-19.1-40.4-19.1s-5.3,20.7-9.1,35.4c-3.9,14.7-4.5,14.9-8.3,23.2c-4.2,9.3-14.6,23.9-17.6,28.5
	c-2.4,3.6-5.4,6.6-7.2,6.2c-1.8-0.3-1.8-2.2-2.2-6.1c-0.6-5.3-2.3-23.2-1.5-35.3c0.5-7.9,3.3-21.2,3.3-21.2l19.9-81.6
	c-12.3-25.1-2.2-64.4,25.7-64.4c19.8,0,25,17.9,18.9,39.5c-2.7,9.6-11.2,36.6-11.4,37.8s-0.9,4-0.7,6.6c0,7.9,6,23.9,26.8,23.9
	c33.5,0,49.4-49.6,49.4-82.7c0-26.7-16.9-58.9-66.4-58.9c-50.4,0-78.2,38.4-78.2,73.6c0,19.7,7.8,27.7,11.4,32
	c2.9,3.5,1.5,6.9,1.5,6.9l-3.2,12.8c-1.2,4.2-4.9,6.4-10.2,3.3c-5.3-3-30.6-13.8-30.6-59.5c0-46.8,44.1-95.4,112.6-95.4
	c54.4,0,102.4,34.2,102.4,89.6C363.5,289.3,320.8,325.9,278.8,325.9z"/>
</svg>
