<?xml version="1.0" encoding="utf-8"?>
<!-- Generator: Adobe Illustrator 22.0.1, SVG Export Plug-In . SVG Version: 6.00 Build 0)  -->
<svg version="1.1" id="레이어_1" xmlns="http://www.w3.org/2000/svg" xmlns:xlink="http://www.w3.org/1999/xlink" x="0px"
	 y="0px" viewBox="0 0 512 512" style="enable-background:new 0 0 512 512;" xml:space="preserve">
<path d="M191.8,450.3c6.4-2.7,10.8-9.1,10.8-16.4v-48.4c0-1.8,0.1-3.6,0.4-5.5c-0.1,0-0.2,0.1-0.4,0.1c0,0-26.9,0-32.2,0
	c-13.4,0-25.1-5.4-30.5-16.1c-6.3-11.6-9-31.3-25.1-42.1c-2.7-1.8-0.9-4.5,4.5-4.5c5.4,0.9,17,8.1,24.2,17.9
	c8.1,9.9,16.1,17.9,30.5,17.9c22.3,0,34.2-1.1,41.4-5c8.4-12.4,19.9-21.9,32-21.9v-0.2c-50.8-1.6-83.2-18.5-98.3-44.6
	c-32.8,0.4-61.4,3.6-77.7,6.3c-0.5-2.9-1-5.9-1.4-8.8c16.1-2.7,43.4-5.8,74.7-6.4c-1-2.5-1.9-5-2.6-7.6c-31.4-1.6-58.6-0.3-73.3,0.9
	c-0.2-3-0.4-5.9-0.5-8.9c14.8-1.2,41.2-2.4,71.8-1c-0.7-4.5-1.2-9.1-1.2-13.8c0-15.2,5.4-31.3,15.2-44.8
	c-4.5-15.2-10.7-47.5,1.8-59.1c24.2,0,41.2,11.6,49.3,18.8c15.2-6.3,32.2-9.9,51-9.9c18.8,0,35.8,3.6,50.2,9.9
	c8.1-7.2,25.1-18.8,49.3-18.8c13.4,12.5,6.3,44.8,1.8,59.1c9.9,13.4,15.2,28.7,14.3,44.8c0,4.3-0.4,8.5-1,12.6
	c31.3-1.5,58.5-0.3,73.5,0.9c0,3-0.3,6-0.5,8.9c-15-1.2-42.8-2.5-74.9-0.8c-0.8,3-1.8,5.9-2.9,8.8c31.8,0.4,59.7,3.5,76.6,6.2
	c-0.4,3-0.8,5.9-1.4,8.8c-17.1-2.7-46.3-5.9-79.5-6.1c-14.9,25.8-46.8,42.6-96.5,44.5v0.3c23.3,0,44.8,34.9,44.8,59.1v48.4
	c0,7.4,4.5,13.7,10.8,16.4c82.1-27.2,141.4-104.5,141.4-195.6c0-113.6-92.4-206-206-206s-206,92.4-206,206
	C50.4,345.8,109.8,423.2,191.8,450.3z"/>
</svg>
