<?xml version="1.0" encoding="utf-8"?>
<!-- Generator: Adobe Illustrator 22.0.1, SVG Export Plug-In . SVG Version: 6.00 Build 0)  -->
<svg version="1.1" id="레이어_1" xmlns="http://www.w3.org/2000/svg" xmlns:xlink="http://www.w3.org/1999/xlink" x="0px"
	 y="0px" viewBox="0 0 512 512" style="enable-background:new 0 0 512 512;" xml:space="preserve">
<style type="text/css">
	.st0{fill:#FFFFFF;}
</style>
<g>
	<circle cx="256" cy="256" r="206"/>
	<g>
		<path class="st0" d="M198.1,357.3V220.6h-45.4v136.7H198.1z M175.4,201.9c15.9,0,25.7-10.5,25.7-23.6
			c-0.3-13.4-9.8-23.6-25.4-23.6c-15.5,0-25.7,10.2-25.7,23.6c0,13.1,9.8,23.6,25.1,23.6H175.4L175.4,201.9z"/>
		<path class="st0" d="M223.3,357.3h45.4V281c0-4.1,0.3-8.2,1.5-11.1c3.3-8.2,10.7-16.6,23.3-16.6c16.4,0,23,12.5,23,30.9v73.1H362
			v-78.4c0-42-22.4-61.6-52.3-61.6c-24.5,0-35.2,13.7-41.3,23.1h0.3v-19.8h-45.4C223.9,233.4,223.3,357.3,223.3,357.3L223.3,357.3z"
			/>
	</g>
</g>
</svg>
