<?xml version="1.0" encoding="utf-8"?>
<!-- Generator: Adobe Illustrator 22.0.1, SVG Export Plug-In . SVG Version: 6.00 Build 0)  -->
<svg version="1.1" id="레이어_1" xmlns="http://www.w3.org/2000/svg" xmlns:xlink="http://www.w3.org/1999/xlink" x="0px"
	 y="0px" viewBox="0 0 190.8 30.2" style="enable-background:new 0 0 190.8 30.2;" xml:space="preserve">
<style type="text/css">
	.st0{fill:#222222;}
	.st1{fill:#0070C9;}
</style>
<path class="st0" d="M0,1.4h20.9v5.3h-7.3v19.2H7.3V6.7H0V1.4z"/>
<path class="st0" d="M38.8,25.8l-1.7-4.2H26.7L25,25.9h-6.5L29,1.5h6.5l10.3,24.4L38.8,25.8L38.8,25.8z M28.5,16.5h6.7l-3.3-8.8
	L28.5,16.5z"/>
<path class="st0" d="M47.9,1.4h19.2v5.2H54.3v4.5H66v5.2H54.3v4.7h13.2v5.2H47.8V1.4H47.9z"/>
<path class="st0" d="M84.1,6.8c-1.5-0.5-2.7-0.8-3.8-0.8c-0.8,0-1.5,0.2-1.8,0.5c-0.5,0.3-0.8,0.6-0.8,1.2c0,0.5,0.3,1.1,0.6,1.4
	c0.3,0.3,0.9,0.6,1.5,0.9c0.6,0.2,1.5,0.6,2.6,0.9c1.7,0.5,3,0.9,4.2,1.4c1.2,0.5,2,1.2,2.7,2.3c0.8,0.9,1.2,2.4,1.2,3.9
	c0,1.5-0.5,3-1.2,4.2c-0.8,1.2-2,2.1-3.5,2.6c-1.5,0.6-3.2,0.9-5,0.9c-2,0-4.1-0.3-6.1-1.1c-2-0.8-3.8-1.7-5.3-2.9l2.6-5
	c1.2,1.1,2.7,2,4.4,2.7c1.7,0.6,3.2,1.1,4.5,1.1c1.1,0,1.7-0.2,2.3-0.6c0.5-0.3,0.8-0.9,0.8-1.5s-0.3-0.9-0.6-1.4
	c-0.3-0.5-0.9-0.6-1.5-0.9c-0.6-0.2-1.5-0.5-2.6-0.8c-1.7-0.5-3-0.9-4.2-1.4c-1.1-0.5-2-1.2-2.7-2.1c-0.8-0.9-1.2-2.3-1.2-3.9
	c0-1.5,0.3-2.9,1.2-3.9s2-2,3.3-2.7C77.2,1.1,79,0.9,81,0.9c1.8,0,3.5,0.3,5.3,0.8s3.3,1.2,4.5,2l-2.6,5C86.9,7.9,85.5,7.3,84.1,6.8
	z"/>
<path class="st0" d="M112.3,2.6c2,1.1,3.5,2.6,4.8,4.5c1.2,1.8,1.8,4.1,1.8,6.4s-0.6,4.5-1.8,6.5c-1.2,1.8-2.7,3.5-4.8,4.5
	c-2,1.1-4.2,1.7-6.7,1.7c-2.6,0-4.7-0.6-6.7-1.7c-2-1.2-3.5-2.7-4.8-4.5c-1.2-1.8-1.8-4.1-1.8-6.5s0.6-4.4,1.8-6.4s2.7-3.5,4.8-4.5
	c2.1-1.1,4.2-1.7,6.7-1.7C108.1,0.9,110.4,1.5,112.3,2.6z M102.3,7.3c-1.1,0.6-1.8,1.5-2.4,2.6c-0.6,1.2-0.9,2.4-0.9,3.6
	c0,1.4,0.3,2.6,0.9,3.6s1.4,2,2.4,2.7c1.1,0.8,2.1,0.9,3.3,0.9c1.2,0,2.4-0.3,3.3-0.9c0.9-0.6,1.8-1.5,2.4-2.7
	c0.6-1.2,0.9-2.4,0.9-3.6c0-1.4-0.3-2.6-0.9-3.6c-0.6-1.2-1.4-2-2.4-2.6c-1.1-0.6-2.1-0.9-3.3-0.9C104.4,6.4,103.2,6.7,102.3,7.3z"
	/>
<path class="st0" d="M138.7,1.4h5.9v24.4H139l-11.1-14.7v14.7H122V1.4h5.6l11.1,14.7V1.4z"/>
<path class="st0" d="M165.5,13.3h5.6V23c-1.2,1.1-2.9,1.8-4.8,2.4c-2,0.6-3.6,0.9-5.5,0.9c-2.6,0-4.7-0.6-6.7-1.7
	c-2-1.2-3.5-2.7-4.7-4.5c-1.2-1.8-1.7-4.2-1.7-6.7s0.6-4.5,1.8-6.4c1.2-1.8,2.7-3.5,4.8-4.5c2-1.1,4.2-1.7,7-1.7
	c1.8,0,3.6,0.3,5.5,1.1s3.3,1.5,4.7,2.7l-3.6,4.5c-0.9-0.9-1.8-1.5-3-2c-1.2-0.5-2.3-0.8-3.3-0.8c-1.2,0-2.6,0.3-3.5,0.9
	c-0.9,0.6-1.8,1.5-2.6,2.6s-0.9,2.4-0.9,3.6c0,1.4,0.3,2.6,0.9,3.6c0.6,1.1,1.4,2,2.6,2.6c1.1,0.6,2.3,0.9,3.5,0.9
	c1.2,0,2.7-0.3,4.2-1.2L165.5,13.3L165.5,13.3z"/>
<path class="st1" d="M179.3,20.9c0.5,0.6,0.9,1.2,0.9,2.1c0,0.9-0.3,1.7-0.9,2.3c-0.5,0.6-1.2,0.8-2.1,0.8s-1.7-0.3-2.1-0.8
	c-0.5-0.6-0.9-1.4-0.9-2.3c0-0.9,0.3-1.7,0.9-2.1c0.5-0.6,1.2-0.9,2.1-0.9C177.9,20,178.7,20.3,179.3,20.9z"/>
</svg>
